<svg xmlns="http://www.w3.org/2000/svg" xmlns:xlink="http://www.w3.org/1999/xlink" width="5000" zoomAndPan="magnify" viewBox="0 0 3750 1874.999927" height="2500" preserveAspectRatio="xMidYMid meet" version="1.2"><defs/><g id="59fc209b5c"><g style="fill:#ffffff;fill-opacity:1;"><g transform="translate(234.550967, 1287.713656)"><path style="stroke:none" d="M 682 -117.34375 C 682 -111.925781 682.191406 -103.40625 682.578125 -91.78125 C 682.960938 -80.164062 683.347656 -67.96875 683.734375 -55.1875 C 684.117188 -42.40625 684.503906 -31.363281 684.890625 -22.0625 C 685.285156 -12.769531 685.484375 -8.125 685.484375 -8.125 C 685.484375 -2.707031 683.15625 0 678.5 0 L 38.34375 0 C 34.46875 0 32.53125 -2.707031 32.53125 -8.125 L 32.53125 -26.71875 C 32.53125 -27.5 32.53125 -27.890625 32.53125 -27.890625 C 32.53125 -29.429688 32.53125 -30.976562 32.53125 -32.53125 L 32.53125 -395.015625 C 32.53125 -425.222656 32.53125 -455.429688 32.53125 -485.640625 C 32.53125 -515.847656 33.304688 -546.054688 34.859375 -576.265625 C 34.859375 -603.378906 34.46875 -630.101562 33.6875 -656.4375 C 33.6875 -668.050781 33.492188 -679.28125 33.109375 -690.125 C 32.722656 -700.96875 32.914062 -712.195312 33.6875 -723.8125 C 34.46875 -728.46875 36.789062 -730.796875 40.65625 -730.796875 L 367.140625 -730.796875 C 371.015625 -730.796875 372.953125 -728.082031 372.953125 -722.65625 C 372.953125 -697.875 373.722656 -673.28125 375.265625 -648.875 C 376.816406 -624.476562 377.976562 -599.890625 378.75 -575.109375 C 379.53125 -558.835938 379.921875 -542.765625 379.921875 -526.890625 C 379.921875 -511.015625 379.921875 -495.328125 379.921875 -479.828125 C 380.691406 -468.984375 380.6875 -453.300781 379.90625 -432.78125 C 379.132812 -412.257812 378.363281 -392.316406 377.59375 -372.953125 C 376.820312 -353.585938 376.820312 -340.804688 377.59375 -334.609375 C 377.59375 -324.535156 377.59375 -314.078125 377.59375 -303.234375 C 377.59375 -292.390625 380.304688 -283.484375 385.734375 -276.515625 C 388.828125 -271.867188 397.734375 -268.769531 412.453125 -267.21875 C 427.171875 -265.664062 442.660156 -264.890625 458.921875 -264.890625 C 475.191406 -264.890625 487.195312 -264.890625 494.9375 -264.890625 C 502.6875 -264.890625 514.691406 -265.082031 530.953125 -265.46875 C 547.222656 -265.863281 564.84375 -266.445312 583.8125 -267.21875 C 602.789062 -267.988281 620.992188 -268.757812 638.421875 -269.53125 C 655.847656 -270.3125 669.597656 -270.703125 679.671875 -270.703125 C 683.546875 -269.929688 685.09375 -267.609375 684.3125 -263.734375 C 684.3125 -262.179688 684.3125 -256.367188 684.3125 -246.296875 C 684.3125 -236.234375 684.117188 -225.78125 683.734375 -214.9375 C 683.347656 -204.09375 683.15625 -195.960938 683.15625 -190.546875 C 682.382812 -178.148438 682 -165.753906 682 -153.359375 C 682 -140.960938 682 -128.957031 682 -117.34375 Z M 682 -117.34375 "/></g></g><g style="fill:#ffffff;fill-opacity:1;"><g transform="translate(1073.387267, 1287.713656)"><path style="stroke:none" d="M 677.34375 -192.859375 C 677.34375 -182.796875 677.34375 -171.757812 677.34375 -159.75 C 677.34375 -147.75 677.34375 -137.488281 677.34375 -128.96875 C 677.34375 -122.769531 677.535156 -113.472656 677.921875 -101.078125 C 678.304688 -88.679688 678.882812 -75.316406 679.65625 -60.984375 C 680.4375 -46.660156 681.019531 -34.460938 681.40625 -24.390625 C 681.800781 -14.328125 682 -9.296875 682 -9.296875 C 682 -3.097656 678.898438 0 672.703125 0 L 44.15625 0 C 33.3125 0 28.273438 -5.421875 29.046875 -16.265625 C 31.367188 -74.359375 32.722656 -132.644531 33.109375 -191.125 C 33.492188 -249.601562 34.078125 -308.273438 34.859375 -367.140625 C 35.628906 -424.453125 37.753906 -482.15625 41.234375 -540.25 C 44.722656 -598.34375 42.207031 -656.046875 33.6875 -713.359375 C 32.914062 -718.003906 34.078125 -722.070312 37.171875 -725.5625 C 40.273438 -729.050781 44.148438 -730.796875 48.796875 -730.796875 L 668.046875 -730.796875 C 672.691406 -730.796875 675.789062 -728.46875 677.34375 -723.8125 C 677.34375 -723.039062 677.148438 -719.554688 676.765625 -713.359375 C 676.378906 -707.160156 675.796875 -700.960938 675.015625 -694.765625 C 675.015625 -690.898438 674.628906 -681.992188 673.859375 -668.046875 C 673.085938 -654.109375 672.503906 -639.585938 672.109375 -624.484375 C 671.722656 -609.378906 671.53125 -597.953125 671.53125 -590.203125 C 671.53125 -582.460938 671.914062 -572.972656 672.6875 -561.734375 C 673.46875 -550.503906 674.4375 -540.4375 675.59375 -531.53125 C 676.757812 -522.625 677.34375 -518.171875 677.34375 -518.171875 C 677.34375 -511.972656 673.859375 -508.875 666.890625 -508.875 C 666.890625 -508.875 659.335938 -509.066406 644.234375 -509.453125 C 629.128906 -509.847656 609.957031 -510.046875 586.71875 -510.046875 C 563.488281 -510.046875 538.898438 -510.046875 512.953125 -510.046875 C 487.003906 -510.046875 462.988281 -509.65625 440.90625 -508.875 C 418.832031 -508.101562 401.601562 -506.941406 389.21875 -505.390625 C 377.59375 -503.847656 365.773438 -500.363281 353.765625 -494.9375 C 341.765625 -489.519531 334.988281 -479.835938 333.4375 -465.890625 C 332.664062 -457.367188 335.378906 -450.203125 341.578125 -444.390625 C 347.773438 -438.585938 354.359375 -434.132812 361.328125 -431.03125 C 365.203125 -430.257812 377.398438 -429.484375 397.921875 -428.703125 C 418.453125 -427.929688 443.046875 -427.546875 471.703125 -427.546875 C 500.359375 -427.546875 529.207031 -427.738281 558.25 -428.125 C 587.300781 -428.519531 611.894531 -428.71875 632.03125 -428.71875 C 652.164062 -428.71875 663.785156 -428.71875 666.890625 -428.71875 C 673.859375 -428.71875 677.34375 -425.617188 677.34375 -419.421875 L 677.34375 -322.984375 C 677.34375 -314.460938 677.34375 -307.101562 677.34375 -300.90625 C 677.34375 -294.71875 677.34375 -288.132812 677.34375 -281.15625 C 677.34375 -274.96875 673.859375 -271.875 666.890625 -271.875 C 653.722656 -271.875 635.328125 -272.066406 611.703125 -272.453125 C 588.078125 -272.835938 563.675781 -273.414062 538.5 -274.1875 C 513.332031 -274.96875 490.675781 -275.550781 470.53125 -275.9375 C 450.394531 -276.320312 436.84375 -276.515625 429.875 -276.515625 C 422.132812 -275.742188 412.644531 -275.359375 401.40625 -275.359375 C 390.175781 -275.359375 379.523438 -273.804688 369.453125 -270.703125 C 359.390625 -267.609375 352.035156 -261.410156 347.390625 -252.109375 C 339.640625 -237.398438 340.796875 -225.203125 350.859375 -215.515625 C 360.929688 -205.835938 372.164062 -199.445312 384.5625 -196.34375 C 392.3125 -194.800781 408.191406 -194.03125 432.203125 -194.03125 C 456.210938 -194.03125 483.515625 -194.609375 514.109375 -195.765625 C 544.703125 -196.929688 574.132812 -198.09375 602.40625 -199.25 C 630.675781 -200.414062 652.171875 -201.382812 666.890625 -202.15625 C 673.859375 -202.15625 677.34375 -199.054688 677.34375 -192.859375 Z M 677.34375 -192.859375 "/></g></g><g style="fill:#ffffff;fill-opacity:1;"><g transform="translate(1909.900142, 1287.713656)"><path style="stroke:none" d="M 701.75 0 L 322.984375 0 C 319.890625 0 318.34375 -1.9375 318.34375 -5.8125 C 319.113281 -20.53125 320.660156 -40.472656 322.984375 -65.640625 C 325.304688 -90.816406 327.820312 -116.179688 330.53125 -141.734375 C 333.25 -167.296875 335.382812 -187.050781 336.9375 -201 C 337.707031 -202.539062 339.253906 -203.695312 341.578125 -204.46875 C 343.898438 -205.25 345.835938 -205.640625 347.390625 -205.640625 C 348.929688 -204.867188 353.578125 -204.484375 361.328125 -204.484375 C 369.078125 -204.484375 377.015625 -204.484375 385.140625 -204.484375 C 393.273438 -204.484375 398.503906 -204.484375 400.828125 -204.484375 C 400.828125 -204.484375 404.117188 -206.03125 410.703125 -209.125 C 417.285156 -212.226562 420.578125 -217.648438 420.578125 -225.390625 C 419.804688 -229.265625 418.0625 -240.691406 415.34375 -259.671875 C 412.632812 -278.648438 409.535156 -300.335938 406.046875 -324.734375 C 402.566406 -349.128906 399.472656 -372.554688 396.765625 -395.015625 C 394.054688 -417.484375 392.3125 -434.140625 391.53125 -444.984375 C 390.757812 -462.023438 388.4375 -476.351562 384.5625 -487.96875 C 380.6875 -499.582031 374.878906 -505.390625 367.140625 -505.390625 C 356.296875 -506.171875 348.742188 -500.941406 344.484375 -489.703125 C 340.222656 -478.472656 337.707031 -469.757812 336.9375 -463.5625 C 334.601562 -446.53125 330.722656 -422.519531 325.296875 -391.53125 C 319.878906 -360.550781 313.6875 -326.472656 306.71875 -289.296875 C 299.75 -252.117188 293.164062 -214.9375 286.96875 -177.75 C 280.769531 -140.570312 275.539062 -106.6875 271.28125 -76.09375 C 267.019531 -45.5 264.503906 -22.070312 263.734375 -5.8125 C 263.734375 -1.9375 262.570312 0 260.25 0 L 25.5625 0 C 22.457031 0 21.296875 -2.320312 22.078125 -6.96875 C 22.847656 -10.070312 23.425781 -13.363281 23.8125 -16.84375 C 24.195312 -20.332031 24.78125 -23.625 25.5625 -26.71875 C 27.113281 -33.6875 30.210938 -48.59375 34.859375 -71.4375 C 39.503906 -94.289062 44.726562 -120.046875 50.53125 -148.703125 C 56.34375 -177.367188 61.957031 -205.0625 67.375 -231.78125 C 72.800781 -258.507812 77.453125 -279.226562 81.328125 -293.9375 C 82.878906 -304.007812 85.785156 -321.050781 90.046875 -345.0625 C 94.304688 -369.070312 98.953125 -396.757812 103.984375 -428.125 C 109.015625 -459.5 114.238281 -491.644531 119.65625 -524.5625 C 125.082031 -557.476562 129.925781 -588.648438 134.1875 -618.078125 C 138.445312 -647.515625 142.125 -671.914062 145.21875 -691.28125 C 148.320312 -710.644531 149.875 -722.265625 149.875 -726.140625 C 150.644531 -729.242188 152.191406 -730.796875 154.515625 -730.796875 L 577.421875 -730.796875 C 578.972656 -730.796875 580.132812 -729.242188 580.90625 -726.140625 C 582.457031 -718.398438 585.363281 -702.328125 589.625 -677.921875 C 593.882812 -653.523438 598.53125 -626.222656 603.5625 -596.015625 C 608.601562 -565.804688 613.445312 -536.953125 618.09375 -509.453125 C 622.738281 -481.960938 626.609375 -460.472656 629.703125 -444.984375 C 635.128906 -413.992188 640.164062 -383.007812 644.8125 -352.03125 C 649.457031 -321.050781 654.101562 -290.070312 658.75 -259.09375 C 660.300781 -252.894531 662.429688 -241.082031 665.140625 -223.65625 C 667.859375 -206.226562 671.347656 -186.472656 675.609375 -164.390625 C 679.867188 -142.316406 683.929688 -120.050781 687.796875 -97.59375 C 691.671875 -75.132812 695.347656 -55.769531 698.828125 -39.5 C 702.316406 -23.238281 704.453125 -12.394531 705.234375 -6.96875 C 706.773438 -2.320312 705.613281 0 701.75 0 Z M 701.75 0 "/></g></g><g style="fill:#ffffff;fill-opacity:1;"><g transform="translate(2762.678453, 1287.713656)"><path style="stroke:none" d="M 680.828125 -341.578125 C 680.828125 -316.015625 679.472656 -289.289062 676.765625 -261.40625 C 674.054688 -233.519531 670.378906 -212.609375 665.734375 -198.671875 C 665.734375 -198.671875 661.664062 -188.210938 653.53125 -167.296875 C 645.394531 -146.390625 632.804688 -125.476562 615.765625 -104.5625 C 607.242188 -95.269531 592.71875 -83.070312 572.1875 -67.96875 C 551.664062 -52.863281 531.335938 -41.050781 511.203125 -32.53125 C 486.421875 -22.457031 462.21875 -15.097656 438.59375 -10.453125 C 414.96875 -5.804688 398.507812 -3.484375 389.21875 -3.484375 C 382.238281 -2.710938 371.390625 -2.128906 356.671875 -1.734375 C 341.960938 -1.347656 327.25 -1.15625 312.53125 -1.15625 C 297.8125 -1.15625 286.96875 -1.15625 280 -1.15625 C 279.226562 -1.15625 270.898438 -0.960938 255.015625 -0.578125 C 239.140625 -0.191406 219.582031 0 196.34375 0 C 173.113281 0 149.878906 0 126.640625 0 C 103.398438 0 84.035156 0 68.546875 0 C 53.054688 0 45.3125 0 45.3125 0 C 37.5625 0 34.078125 -3.875 34.859375 -11.625 C 36.398438 -17.8125 37.363281 -32.132812 37.75 -54.59375 C 38.144531 -77.0625 38.34375 -102.816406 38.34375 -131.859375 C 38.34375 -160.910156 38.34375 -188.796875 38.34375 -215.515625 C 38.34375 -242.242188 37.953125 -263.351562 37.171875 -278.84375 C 36.398438 -312.914062 35.238281 -346.992188 33.6875 -381.078125 C 32.144531 -415.160156 30.984375 -449.242188 30.203125 -483.328125 L 30.203125 -683.15625 C 30.984375 -695.550781 31.757812 -708.332031 32.53125 -721.5 C 32.53125 -727.695312 35.628906 -730.796875 41.828125 -730.796875 L 357.84375 -730.796875 C 357.84375 -730.796875 354.160156 -730.796875 346.796875 -730.796875 C 339.441406 -730.796875 332.664062 -730.796875 326.46875 -730.796875 C 320.269531 -730.796875 318.71875 -730.796875 321.8125 -730.796875 C 324.914062 -730.796875 337.3125 -730.796875 359 -730.796875 C 402.375 -730.796875 440.328125 -726.335938 472.859375 -717.421875 C 505.390625 -708.515625 539.082031 -689.734375 573.9375 -661.078125 C 598.726562 -641.710938 617.898438 -618.472656 631.453125 -591.359375 C 645.003906 -564.253906 654.6875 -539.273438 660.5 -516.421875 C 666.3125 -493.578125 669.988281 -477.894531 671.53125 -469.375 C 673.082031 -460.851562 674.628906 -448.070312 676.171875 -431.03125 C 677.722656 -414 678.882812 -396.960938 679.65625 -379.921875 C 680.4375 -362.878906 680.828125 -350.097656 680.828125 -341.578125 Z M 378.75 -295.109375 C 380.300781 -303.628906 381.269531 -315.828125 381.65625 -331.703125 C 382.039062 -347.578125 382.039062 -363.84375 381.65625 -380.5 C 381.269531 -397.15625 380.691406 -410.128906 379.921875 -419.421875 C 376.816406 -446.523438 371.390625 -464.144531 363.640625 -472.28125 C 355.898438 -480.414062 348.546875 -484.484375 341.578125 -484.484375 C 334.609375 -484.484375 329.570312 -481.578125 326.46875 -475.765625 C 323.375 -469.960938 321.828125 -457.765625 321.828125 -439.171875 L 321.828125 -296.265625 C 321.828125 -282.328125 322.796875 -270.128906 324.734375 -259.671875 C 326.671875 -249.210938 332.671875 -243.984375 342.734375 -243.984375 C 353.578125 -243.984375 361.320312 -247.660156 365.96875 -255.015625 C 370.625 -262.378906 374.882812 -275.742188 378.75 -295.109375 Z M 378.75 -295.109375 "/></g></g></g></svg>