<svg xmlns="http://www.w3.org/2000/svg" viewBox="0 0 24 24" fill="white"><path d="M12 0a12 12 0 1 0 0 24A12 12 0 0 0 12 0zm5.18 17.4a.75.75 0 0 1-1.03.27c-2.82-1.73-6.36-2.12-10.59-1.16a.75.75 0 1 1-.33-1.46c4.58-1.04 8.55-.58 11.68 1.35.36.22.48.68.27 1.02zm1.47-3.17a.94.94 0 0 1-1.28.31c-3.23-1.98-8.14-2.55-11.95-1.39a.94.94 0 1 1-.56-1.79c4.29-1.33 9.7-.69 13.38 1.51.45.27.6.86.31 1.36zM18.3 8.9C14.46 6.62 8.13 6.4 4.48 7.52a1.13 1.13 0 1 1-.66-2.16c4.27-1.32 11.29-1.05 15.66 1.5.45.28.6.86.31 1.36z"/></svg>